<?xml version="1.0" encoding="UTF-8" standalone="no"?>
<!DOCTYPE svg PUBLIC "-//W3C//DTD SVG 1.1//EN"
 "http://www.w3.org/Graphics/SVG/1.1/DTD/svg11.dtd">
<!-- Generated by graphviz version 14.1.2 (20260124.0452)
 -->
<!-- Pages: 1 -->
<svg width="469pt" height="151pt"
 viewBox="0.00 0.00 469.00 151.00" xmlns="http://www.w3.org/2000/svg" xmlns:xlink="http://www.w3.org/1999/xlink">
<g id="graph0" class="graph" transform="scale(1 1) rotate(0) translate(4 146.89)">
<polygon fill="white" stroke="none" points="-4,4 -4,-146.89 465.04,-146.89 465.04,4 -4,4"/>
<!-- x coord -->
<g id="node1" class="node">
<title>x coord</title>
<polygon fill="lightgray" stroke="black" points="43,-142.89 0,-142.89 0,-124.39 43,-124.39 43,-142.89"/>
<text xml:space="preserve" text-anchor="middle" x="21.5" y="-130.34" font-family="Times New Roman,serif" font-size="9.00">x coord</text>
</g>
<!-- Left Engine -->
<g id="node10" class="node">
<title>Left Engine</title>
<ellipse fill="lightblue" stroke="black" cx="78.5" cy="-44.19" rx="40.48" ry="40.48"/>
<text xml:space="preserve" text-anchor="middle" x="78.5" y="-40.89" font-family="Times New Roman,serif" font-size="9.00">Left Engine</text>
</g>
<!-- x coord&#45;&gt;Left Engine -->
<g id="edge1" class="edge">
<title>x coord&#45;&gt;Left Engine</title>
<path fill="none" stroke="green" stroke-width="0.46" d="M27.17,-123.93C32.81,-115.29 41.88,-101.37 50.85,-87.62"/>
<polygon fill="green" stroke="green" stroke-width="0.46" points="53.77,-89.54 56.3,-79.25 47.91,-85.71 53.77,-89.54"/>
</g>
<!-- y coord -->
<g id="node2" class="node">
<title>y coord</title>
<polygon fill="lightgray" stroke="black" points="445,-142.89 402,-142.89 402,-124.39 445,-124.39 445,-142.89"/>
<text xml:space="preserve" text-anchor="middle" x="423.5" y="-130.34" font-family="Times New Roman,serif" font-size="9.00">y coord</text>
</g>
<!-- Do Nothing -->
<g id="node9" class="node">
<title>Do Nothing</title>
<ellipse fill="lightblue" stroke="black" cx="419.5" cy="-44.19" rx="41.54" ry="41.54"/>
<text xml:space="preserve" text-anchor="middle" x="419.5" y="-40.89" font-family="Times New Roman,serif" font-size="9.00">Do Nothing</text>
</g>
<!-- y coord&#45;&gt;Do Nothing -->
<g id="edge2" class="edge">
<title>y coord&#45;&gt;Do Nothing</title>
<path fill="none" stroke="red" stroke-width="0.24" d="M423.1,-123.93C422.79,-117.12 422.33,-107.05 421.84,-96.35"/>
<polygon fill="red" stroke="red" stroke-width="0.24" points="425.34,-96.2 421.38,-86.37 418.34,-96.52 425.34,-96.2"/>
</g>
<!-- x vel -->
<g id="node3" class="node">
<title>x vel</title>
<polygon fill="lightgray" stroke="black" points="210.12,-142.89 176.88,-142.89 176.88,-124.39 210.12,-124.39 210.12,-142.89"/>
<text xml:space="preserve" text-anchor="middle" x="193.5" y="-130.34" font-family="Times New Roman,serif" font-size="9.00">x vel</text>
</g>
<!-- Right Engine -->
<g id="node12" class="node">
<title>Right Engine</title>
<ellipse fill="lightblue" stroke="black" cx="196.5" cy="-44.19" rx="44.19" ry="44.19"/>
<text xml:space="preserve" text-anchor="middle" x="196.5" y="-40.89" font-family="Times New Roman,serif" font-size="9.00">Right Engine</text>
</g>
<!-- x vel&#45;&gt;Right Engine -->
<g id="edge13" class="edge">
<title>x vel&#45;&gt;Right Engine</title>
<path fill="none" stroke="red" stroke-width="0.52" d="M193.8,-123.93C194.01,-117.72 194.32,-108.77 194.65,-99.12"/>
<polygon fill="red" stroke="red" stroke-width="0.52" points="198.14,-99.37 194.99,-89.26 191.15,-99.13 198.14,-99.37"/>
</g>
<!-- y vel -->
<g id="node4" class="node">
<title>y vel</title>
<polygon fill="lightgray" stroke="black" points="322.12,-142.89 288.88,-142.89 288.88,-124.39 322.12,-124.39 322.12,-142.89"/>
<text xml:space="preserve" text-anchor="middle" x="305.5" y="-130.34" font-family="Times New Roman,serif" font-size="9.00">y vel</text>
</g>
<!-- Main Engine -->
<g id="node11" class="node">
<title>Main Engine</title>
<ellipse fill="lightblue" stroke="black" cx="309.5" cy="-44.19" rx="43.66" ry="43.66"/>
<text xml:space="preserve" text-anchor="middle" x="309.5" y="-40.89" font-family="Times New Roman,serif" font-size="9.00">Main Engine</text>
</g>
<!-- y vel&#45;&gt;Main Engine -->
<g id="edge3" class="edge">
<title>y vel&#45;&gt;Main Engine</title>
<path fill="none" stroke="red" stroke-width="1.1" d="M305.9,-123.93C306.18,-117.79 306.58,-108.97 307.02,-99.45"/>
<polygon fill="red" stroke="red" stroke-width="1.1" points="310.5,-99.87 307.46,-89.72 303.51,-99.55 310.5,-99.87"/>
</g>
<!-- y vel&#45;&gt;Right Engine -->
<g id="edge4" class="edge">
<title>y vel&#45;&gt;Right Engine</title>
<path fill="none" stroke="green" stroke-width="0.19" d="M294.65,-123.93C281.62,-113.48 259,-95.33 238.75,-79.09"/>
<polygon fill="green" stroke="green" stroke-width="0.19" points="241.05,-76.45 231.06,-72.92 236.67,-81.91 241.05,-76.45"/>
</g>
<!-- angle -->
<g id="node5" class="node">
<title>angle</title>
<polygon fill="lightgray" stroke="black" points="95.88,-142.89 61.12,-142.89 61.12,-124.39 95.88,-124.39 95.88,-142.89"/>
<text xml:space="preserve" text-anchor="middle" x="78.5" y="-130.34" font-family="Times New Roman,serif" font-size="9.00">angle</text>
</g>
<!-- angle&#45;&gt;Left Engine -->
<g id="edge5" class="edge">
<title>angle&#45;&gt;Left Engine</title>
<path fill="none" stroke="red" stroke-width="0.62" d="M78.5,-123.93C78.5,-116.93 78.5,-106.46 78.5,-95.43"/>
<polygon fill="red" stroke="red" stroke-width="0.62" points="82,-95.71 78.5,-85.71 75,-95.71 82,-95.71"/>
</g>
<!-- angle&#45;&gt;Right Engine -->
<g id="edge6" class="edge">
<title>angle&#45;&gt;Right Engine</title>
<path fill="none" stroke="green" stroke-width="0.31" d="M90.25,-123.93C104.77,-113.17 130.32,-94.23 152.73,-77.63"/>
<polygon fill="green" stroke="green" stroke-width="0.31" points="154.81,-80.44 160.76,-71.68 150.64,-74.82 154.81,-80.44"/>
</g>
<!-- ang acc -->
<g id="node6" class="node">
<title>ang acc</title>
<polygon fill="lightgray" stroke="black" points="270.62,-142.89 228.38,-142.89 228.38,-124.39 270.62,-124.39 270.62,-142.89"/>
<text xml:space="preserve" text-anchor="middle" x="249.5" y="-130.34" font-family="Times New Roman,serif" font-size="9.00">ang acc</text>
</g>
<!-- ang acc&#45;&gt;Right Engine -->
<g id="edge7" class="edge">
<title>ang acc&#45;&gt;Right Engine</title>
<path fill="none" stroke="green" stroke-width="0.21" d="M244.22,-123.93C239.42,-116 231.92,-103.63 224.28,-91.03"/>
<polygon fill="green" stroke="green" stroke-width="0.21" points="227.34,-89.33 219.16,-82.59 221.35,-92.95 227.34,-89.33"/>
</g>
<!-- L down -->
<g id="node7" class="node">
<title>L down</title>
<polygon fill="lightgray" stroke="black" points="384.38,-142.89 340.62,-142.89 340.62,-124.39 384.38,-124.39 384.38,-142.89"/>
<text xml:space="preserve" text-anchor="middle" x="362.5" y="-130.34" font-family="Times New Roman,serif" font-size="9.00">L down</text>
</g>
<!-- L down&#45;&gt;Do Nothing -->
<g id="edge8" class="edge">
<title>L down&#45;&gt;Do Nothing</title>
<path fill="none" stroke="green" stroke-width="0.32" d="M368.17,-123.93C373.77,-115.35 382.76,-101.56 391.66,-87.91"/>
<polygon fill="green" stroke="green" stroke-width="0.32" points="394.36,-90.17 396.89,-79.88 388.5,-86.35 394.36,-90.17"/>
</g>
<!-- L down&#45;&gt;Main Engine -->
<g id="edge9" class="edge">
<title>L down&#45;&gt;Main Engine</title>
<path fill="none" stroke="green" stroke-width="0.38" d="M357.22,-123.93C352.37,-115.93 344.79,-103.41 337.08,-90.69"/>
<polygon fill="green" stroke="green" stroke-width="0.38" points="340.23,-89.14 332.05,-82.4 334.24,-92.77 340.23,-89.14"/>
</g>
<!-- L down&#45;&gt;Right Engine -->
<g id="edge10" class="edge">
<title>L down&#45;&gt;Right Engine</title>
<path fill="none" stroke="green" stroke-width="0.14" d="M340.3,-125.06C318.36,-117.18 284.18,-103.86 256.5,-88.39 250.78,-85.19 244.95,-81.55 239.29,-77.77"/>
<polygon fill="green" stroke="green" stroke-width="0.14" points="241.54,-75.07 231.32,-72.29 237.57,-80.84 241.54,-75.07"/>
</g>
<!-- R down -->
<g id="node8" class="node">
<title>R down</title>
<polygon fill="lightgray" stroke="black" points="158.75,-142.89 114.25,-142.89 114.25,-124.39 158.75,-124.39 158.75,-142.89"/>
<text xml:space="preserve" text-anchor="middle" x="136.5" y="-130.34" font-family="Times New Roman,serif" font-size="9.00">R down</text>
</g>
<!-- R down&#45;&gt;Left Engine -->
<g id="edge11" class="edge">
<title>R down&#45;&gt;Left Engine</title>
<path fill="none" stroke="green" stroke-width="0.46" d="M130.73,-123.93C124.89,-115.13 115.43,-100.87 106.15,-86.89"/>
<polygon fill="green" stroke="green" stroke-width="0.46" points="109.27,-85.25 100.82,-78.85 103.43,-89.12 109.27,-85.25"/>
</g>
<!-- R down&#45;&gt;Right Engine -->
<g id="edge12" class="edge">
<title>R down&#45;&gt;Right Engine</title>
<path fill="none" stroke="red" stroke-width="0.44" d="M142.47,-123.93C148.11,-115.71 157.03,-102.72 166,-89.65"/>
<polygon fill="red" stroke="red" stroke-width="0.44" points="168.72,-91.86 171.49,-81.64 162.95,-87.9 168.72,-91.86"/>
</g>
</g>
</svg>
